<svg width="176" height="176" viewBox="0 0 176 176" fill="none" xmlns="http://www.w3.org/2000/svg">
<path d="M51.402 47.9603C50.95 47.9603 50.5498 48.2523 50.4119 48.6827L26.0099 124.835C25.9085 125.151 25.9644 125.497 26.1601 125.765C26.3558 126.034 26.6679 126.192 27 126.192H41.3478C41.8057 126.192 42.2096 125.893 42.3427 125.455L48.6726 104.613H71.3222L77.981 125.469C78.1186 125.9 78.5191 126.192 78.9714 126.192H93.8887C94.2215 126.192 94.5343 126.033 94.7299 125.764C94.9255 125.494 94.9804 125.148 94.8775 124.831L70.1306 48.6787C69.9914 48.2503 69.5922 47.9603 69.1417 47.9603H51.402ZM57.0283 74.6201L57.0283 74.6201L57.032 74.608C57.929 71.6163 58.7355 68.2526 59.4999 65.065C59.593 64.6766 59.6855 64.2909 59.7775 63.9087C60.6628 67.4073 61.6333 71.1725 62.7286 74.6239L62.7291 74.6256L68.2843 92.0263H51.577L57.0283 74.6201ZM149.14 102.578C149.643 102.578 150.073 102.219 150.163 101.725C150.402 100.415 150.632 98.3174 150.632 95.6644C150.632 89.4797 149.162 82.5519 145.313 77.1394C141.428 71.6765 135.177 67.8465 125.866 67.8465C116.741 67.8465 109.724 71.5739 105.008 77.3072C100.311 83.0173 97.9353 90.6632 97.9353 98.4881C97.9353 107.123 100.634 114.385 105.724 119.49C110.814 124.596 118.189 127.437 127.333 127.437C135.382 127.437 142.066 125.826 146.932 123.859C147.399 123.67 147.664 123.173 147.559 122.679L145.526 113.075C145.463 112.778 145.274 112.523 145.007 112.378C144.741 112.232 144.424 112.21 144.141 112.318C140.093 113.85 135.587 114.734 129.255 114.734C125 114.734 121.089 113.696 118.226 111.553C115.621 109.602 113.809 106.682 113.416 102.578H149.14ZM113.497 90.7818C113.903 88.3805 114.867 85.7406 116.505 83.6164C118.383 81.1818 121.145 79.4175 125.075 79.4175C129.328 79.4175 131.886 81.3057 133.416 83.746C134.772 85.9089 135.342 88.5497 135.437 90.7818H113.497Z" fill="#F46139" stroke="#F46139" stroke-width="2.07943" stroke-linejoin="round"/>
</svg>
