<svg width="176" height="176" viewBox="0 0 176 176" fill="none" xmlns="http://www.w3.org/2000/svg">
<path d="M45.0627 128.496H62.3814C62.9684 128.496 63.4441 128.02 63.4441 127.433V51.138C63.4441 50.551 62.9684 50.0753 62.3814 50.0753H45.0627C44.4757 50.0753 44 50.551 44 51.138V127.433C44 128.02 44.4757 128.496 45.0627 128.496Z" fill="#F46139"/>
<path d="M96.9035 129.741C103.812 129.741 109.885 126.913 113.651 122.059L114.183 127.536C114.236 128.081 114.694 128.496 115.241 128.496H130.522C130.525 128.496 130.529 128.496 130.53 128.496C131.117 128.496 131.593 128.02 131.593 127.433C131.593 127.365 131.587 127.299 131.575 127.235C131.354 123.509 131.133 117.064 131.133 110.906V47.0627C131.133 46.4757 130.657 46 130.07 46H112.864C112.277 46 111.801 46.4757 111.801 47.0627V74.392C108.725 71.4283 103.868 69.7714 98.0351 69.7714C91.4463 69.7714 85.2703 72.3342 80.6442 76.9884C75.0501 82.6169 72.1243 90.6679 72.1825 100.265C72.1825 117.345 82.5787 129.741 96.9035 129.741ZM102.45 113.919C95.8434 113.919 91.7396 108.47 91.7396 99.6996C91.7396 92.9315 94.5749 85.0275 102.563 85.0275C107.624 85.0275 110.738 88.8409 111.59 92.6356C111.693 93.4739 111.801 94.6539 111.801 95.5105V102.755C111.801 104.272 111.677 105.373 111.386 106.436C111.38 106.457 111.375 106.478 111.37 106.499C110.442 110.937 106.857 113.919 102.45 113.919Z" fill="#F46139"/>
</svg>
