<svg width="176" height="176" viewBox="0 0 176 176" fill="none" xmlns="http://www.w3.org/2000/svg">
<path d="M38.09 129.741H56.4469C56.9369 129.741 57.3671 129.414 57.4984 128.942L62.852 109.642H83.6351L89.4433 128.964C89.582 129.425 90.0065 129.741 90.4882 129.741H109.541C109.545 129.741 109.548 129.741 109.55 129.741C110.153 129.741 110.641 129.253 110.641 128.65C110.641 128.489 110.607 128.337 110.544 128.199L86.302 50.022C86.1607 49.5657 85.7379 49.2542 85.2598 49.2542H62.0235C61.5436 49.2542 61.1204 49.5674 60.9803 50.0259L37.0473 128.331C36.947 128.662 37.008 129.021 37.2135 129.299C37.4195 129.577 37.744 129.741 38.09 129.741ZM80.4332 94.2155H66.0172L70.277 78.9884C71.0506 76.2446 71.7818 72.9978 72.489 69.8579C72.6508 69.1368 72.8101 68.4291 72.968 67.7372C73.9038 71.4988 74.933 75.5627 75.9648 78.9997L80.4332 94.2155Z" fill="#F46139"/>
<path d="M118.71 70.7476C118.107 70.7476 117.619 71.2358 117.619 71.8383V128.65C117.619 129.253 118.107 129.741 118.71 129.741H136.369C136.972 129.741 137.46 129.253 137.46 128.65V71.8383C137.46 71.2358 136.972 70.7476 136.369 70.7476H118.71Z" fill="#F46139"/>
<path d="M127.423 65.9572C133.576 65.9572 138.041 61.7851 138.041 56.0122C137.907 50.1172 133.588 46 127.539 46C124.451 46 121.709 47.0654 119.819 49.0007C118.044 50.8157 117.099 53.3138 117.154 56.0366C117.097 58.6731 118.045 61.1263 119.823 62.9473C121.719 64.8883 124.418 65.9572 127.423 65.9572Z" fill="#F46139"/>
</svg>
