<svg width="176" height="176" viewBox="0 0 176 176" fill="none" xmlns="http://www.w3.org/2000/svg">
<path d="M146.433 92.9912C145.748 88.1625 144.078 83.5833 141.468 79.3822C139.192 75.7157 136.272 72.4548 132.786 69.6833L132.796 69.6746L96.1876 41.5134C96.1612 41.4901 96.1337 41.4682 96.1051 41.4477C94.888 40.5138 93.2401 40 91.4668 40C89.6912 40 87.9788 40.515 86.6477 41.4506C85.2165 42.452 84.3984 43.7807 84.3412 45.1949C84.2889 46.5144 84.9173 47.784 86.1155 48.7737C88.4715 50.6356 90.8223 52.5381 93.1763 54.4428C95.4609 56.2922 97.8149 58.1967 100.157 60.0509L55.3185 60.0204C50.1907 60.0204 46.6992 62.4322 45.9809 66.4698C45.6653 68.2384 46.2222 70.183 47.4672 71.6723C48.7881 73.2511 50.7058 74.122 52.867 74.122L56.2852 74.1243C61.0074 74.1243 65.7503 74.1126 70.4869 74.1012L75.0038 74.0907L34.3087 104.245L34.1471 104.364C31.874 106.109 30.3859 108.555 30.0648 111.075C29.8215 112.985 30.2662 114.729 31.3514 116.123C32.6448 117.784 34.6643 118.698 37.0382 118.698C39.3702 118.698 41.7498 117.813 43.7416 116.201L65.7176 98.1881C65.6237 99.0677 65.5097 100.358 65.5227 101.295C65.5474 102.778 66.0227 105.753 66.7752 108.169C68.3301 113.133 70.9492 117.675 74.5594 121.664C78.3158 125.814 82.8908 129.105 88.1564 131.442C93.7232 133.908 99.7075 135.16 105.944 135.16H106.001C112.257 135.145 118.261 133.873 123.846 131.379C129.12 129.014 133.693 125.71 137.435 121.561C141.041 117.551 143.656 113.002 145.208 108.041C145.976 105.586 146.467 103.052 146.674 100.488C146.866 98.0089 146.783 95.4867 146.433 92.9912ZM106.4 116.785C92.656 116.785 81.511 106.8 81.511 94.4817C81.511 82.1647 92.6562 72.1793 106.4 72.1793C120.143 72.1793 131.287 82.1647 131.287 94.4817C131.288 106.8 120.143 116.785 106.4 116.785ZM120.752 92.5218C120.955 96.1983 119.489 99.612 116.914 102.139C114.295 104.714 110.558 106.331 106.379 106.331C102.201 106.331 98.4632 104.714 95.8432 102.139C93.2696 99.612 91.8064 96.1987 92.0079 92.5247C92.2054 88.9535 93.9446 85.8011 96.5644 83.5691C99.1405 81.3743 102.6 80.0354 106.378 80.0354C110.157 80.0354 113.616 81.3748 116.192 83.5691C118.813 85.8011 120.553 88.9512 120.752 92.5218Z" fill="#F46139"/>
</svg>
