<svg width="176" height="176" viewBox="0 0 176 176" fill="none" xmlns="http://www.w3.org/2000/svg">
<path d="M36.9603 37C36.5214 36.9979 36.0879 37.0971 35.694 37.2899C35.3002 37.4826 34.9566 37.7636 34.6905 38.1108C33.0925 40.1337 34.5316 42.1655 36.3338 43.8091C37.269 44.6625 44.3691 51.9096 51.896 59.7346C54.266 56.4277 57.033 53.4209 60.1356 50.7808C50.6476 44.9244 41.6907 39.2848 40.6329 38.5352C39.4526 37.6954 38.1633 37.0091 36.9603 37ZM60.1356 50.7808C68.525 55.9643 77.3229 61.3105 81.4405 63.6042C88.1093 67.3113 98.5007 75.7233 100.017 83.6251C102.446 85.7292 109.923 92.2764 111.802 94.5205C114.971 93.5678 118.693 95.1211 121.154 99.5777C125.085 106.725 122.184 116.497 112.22 122.1C111.787 122.518 111.339 122.92 110.876 123.306L112.22 122.1C117.395 115.472 108.978 111.083 106.886 104.653C106.493 103.522 106.323 102.326 106.386 101.131C103.967 99.8577 96.8074 94.5747 93.6977 92.2584C85.5217 92.9808 74.5991 84.2527 69.4102 78.3512C66.2324 74.73 58.8781 66.9862 51.896 59.7346C45.8659 68.1663 42.6201 78.2538 42.6077 88.601C42.6077 98.4709 45.5503 108.119 51.0634 116.326C56.5765 124.532 64.4124 130.928 73.5803 134.706C82.7482 138.483 92.8363 139.471 102.569 137.545C112.302 135.62 121.241 130.867 128.258 123.888C135.275 116.909 140.054 108.017 141.99 98.3366C143.925 88.6563 142.932 78.6225 139.134 69.5039C135.337 60.3852 128.906 52.5914 120.655 47.108C112.404 41.6246 102.704 38.6978 92.7807 38.6978C80.7958 38.7159 69.215 43.0054 60.1356 50.7808ZM99.6765 84.8804C97.3385 85.4493 95.2821 88.6326 94.6011 90.7774C94.4286 91.2966 94.4195 92.1455 94.9007 92.3216C98.5416 94.9947 101.965 97.5955 105.796 99.9976C106.531 98.2231 109.183 95.6494 110.772 94.5793L99.6765 84.8804ZM47.3336 92.281C51.0198 100.851 73.6548 124.656 102.083 104.45C102.063 105.548 102.238 106.641 102.6 107.678C104.688 114.09 113.314 118.637 108.22 125.243C98.528 131.402 85.5217 130.666 76.4922 127.627C60.3399 122.19 49.6488 108.066 47.3336 92.281ZM109.9 95.4417C109.798 95.5102 109.699 95.5841 109.605 95.6629C109.587 95.6765 109.569 95.6991 109.555 95.6991C109.569 95.6855 109.591 95.6629 109.605 95.6629C109.714 95.5952 109.8 95.5094 109.9 95.4462V95.4417Z" fill="#F46139"/>
</svg>
