<svg width="176" height="176" viewBox="0 0 176 176" fill="none" xmlns="http://www.w3.org/2000/svg">
<path d="M54.1968 127.447V100.183C55.6588 100.325 57.3831 100.399 59.2651 100.399C70.7346 100.399 80.0081 97.3896 86.0864 91.6932C91.0654 86.9885 93.8086 79.9793 93.8086 71.9574C93.8086 64.1661 90.5325 57.1213 84.8258 52.633C79.2157 48.17 70.9718 46 59.6229 46C49.7918 46 41.4845 46.5625 34.9296 47.6723C34.3927 47.7625 34 48.2255 34 48.7671V127.447C34 128.061 34.4999 128.558 35.1168 128.558H53.08C53.6969 128.558 54.1968 128.061 54.1968 127.447ZM54.1968 84.0553V62.3138C55.2934 62.1046 57.3532 61.8278 60.5734 61.8278C68.8602 61.8278 73.6127 65.6923 73.6127 72.4301C73.6127 79.8837 68.2054 84.3343 59.1462 84.3343C56.973 84.3343 55.4252 84.249 54.1968 84.0553Z" fill="#F46139"/>
<path d="M126.36 91.0224C118.959 88.4463 117.711 87.2196 117.711 85.4451C117.711 82.2936 121.333 81.8231 123.493 81.8231C128.08 81.8231 132.865 83.5346 135.568 84.9999C135.871 85.1638 136.231 85.1798 136.548 85.0434C136.863 84.9066 137.098 84.6329 137.184 84.3014L140.396 71.8792C140.527 71.3723 140.284 70.8431 139.814 70.6094C136.479 68.9513 130.285 67.179 122.898 67.179C108.302 67.179 98.1086 75.4203 98.1086 87.2014C98.0099 92.9493 100.93 100.819 115.407 105.666C122.439 107.997 123.209 109.209 123.209 111.238C123.209 112.163 123.209 114.978 116.594 114.978C111.638 114.978 104.947 112.789 101.59 110.761C101.285 110.578 100.913 110.549 100.584 110.684C100.256 110.819 100.012 111.101 99.9258 111.444L96.7145 124.341C96.5921 124.833 96.8199 125.344 97.2675 125.585C102.18 128.226 109.225 129.741 116.594 129.741C132.838 129.741 142.929 122.152 142.929 109.922C142.8 100.729 137.688 94.8993 126.36 91.0224Z" fill="#F46139"/>
</svg>
