<svg width="176" height="176" viewBox="0 0 176 176" fill="none" xmlns="http://www.w3.org/2000/svg">
<path d="M104.752 70.8347C109.239 70.8347 113.542 69.0524 116.714 65.8797C119.887 62.7071 121.669 58.4041 121.669 53.9174C121.669 49.4306 119.887 45.1276 116.714 41.955C113.542 38.7824 109.239 37 104.752 37H70.9174C66.4306 37 62.1276 38.7824 58.955 41.955C55.7824 45.1276 54 49.4306 54 53.9174C54 58.4041 55.7824 62.7071 58.955 65.8797C62.1276 69.0524 66.4306 70.8347 70.9174 70.8347C66.4306 70.8347 62.1276 72.6171 58.955 75.7897C55.7824 78.9623 54 83.2653 54 87.7521C54 92.2389 55.7824 96.5419 58.955 99.7145C62.1276 102.887 66.4306 104.669 70.9174 104.669C67.5714 104.669 64.3006 105.662 61.5186 107.521C58.7365 109.379 56.5682 112.022 55.2878 115.113C54.0073 118.204 53.6723 121.606 54.3251 124.887C54.9778 128.169 56.5891 131.183 58.955 133.549C61.3209 135.915 64.3353 137.526 67.617 138.179C70.8986 138.832 74.3001 138.497 77.3914 137.216C80.4826 135.936 83.1247 133.768 84.9836 130.986C86.8426 128.204 87.8347 124.933 87.8347 121.587V70.8347H104.752Z" fill="#F46139"/>
<path d="M104.752 104.669C114.096 104.669 121.67 97.0953 121.67 87.7521C121.67 78.4089 114.096 70.8347 104.752 70.8347C95.4091 70.8347 87.835 78.4089 87.835 87.7521C87.835 97.0953 95.4091 104.669 104.752 104.669Z" fill="#F46139"/>
</svg>
